<svg xmlns="http://www.w3.org/2000/svg" xmlns:xlink="http://www.w3.org/1999/xlink" id="uuid-0716649d-8524-4d7e-940b-27053ddd0a1c" viewBox="0 0 1521.35 450.37" width="1521.35"  height="450.37" ><defs><linearGradient id="uuid-fbc50e81-ff85-48b9-888e-33f08d259bc3" x1="513.94" y1="221.5" x2="1521.35" y2="221.5" gradientUnits="userSpaceOnUse"><stop offset="0" stop-color="#4f46e5"/><stop offset="1" stop-color="#7c3aed"/></linearGradient></defs><g id="uuid-86af042a-e042-490a-aee8-ffe8d74ac6e6"><path d="m514.11,366.77c68.4-6.04,152.96-30.84,209.47-84.13,64.83-61.14,76.45-80.9,141.57-166.62,34.71-45.69,161.08-139.22,261.71-107.63,45.26,14.21,98.56,58.54,182.83,128.63,16.3,13.55,46.57,39.37,67.95,29.93,13.75-6.07,23.87-20.63,16.99-32.36-10.87-18.55-113.57,2.8-141.98,67.96-9.73,22.33-7.76,42.72-6.07,58.25,7.37,67.62,57.69,130.34,121.35,160.18,67.11,31.45,130.96,17.89,152.9,12.13" fill="none" stroke="url(#uuid-fbc50e81-ff85-48b9-888e-33f08d259bc3)" stroke-miterlimit="10" stroke-width="4"/><path d="m452.58,395.17c2.57-1.77,7.43-.33,9.9-2.18s2.5-6.93,4.9-8.88,7.38-.92,9.7-2.97,1.91-7.12,4.13-9.26,7.28-1.58,9.39-3.83,1.22-7.26,3.22-9.61,7.08-2.31,8.95-4.78.43-7.34,2.14-9.91,6.77-3.12,8.32-5.79-.49-7.33.88-10.1,6.3-3.99,7.47-6.85c1.31-3.22-1.17-8.1.03-11.83,1.09-3.4,5.95-5.91,6.86-9.64.86-3.52-2.29-7.98-1.65-11.71s5.08-6.77,5.44-10.51-3.42-7.61-3.37-11.34,3.93-7.56,3.63-11.26-4.75-6.86-5.45-10.49,2.23-8.27,1.07-11.78-6.26-5.43-7.94-8.74-.21-8.55-2.43-11.57-7.6-3.1-10.34-5.72c-2.71-2.6-3.14-8.05-6.25-10.16s-8.34-.49-11.75-2.11-5.41-6.68-9.01-7.82-8.17,1.85-11.88,1.18-6.93-5.08-10.69-5.31-7.51,3.76-11.26,3.96-7.94-3.34-11.63-2.71-6.46,5.38-10.05,6.45-8.53-1.37-11.94.14-4.91,6.81-8.08,8.78-8.6.98-11.44,3.42c-3.16,2.7-3.21,8.46-5.85,11.65s-8.28,4.27-10.41,7.83-.42,9.05-2.04,12.88-6.74,6.4-7.86,10.39,1.9,8.89,1.25,12.98-5.04,7.82-5.23,11.95,3.85,8.26,4.13,12.37-3.15,8.8-2.39,12.82,5.67,7.15,6.95,11.02-.78,9.37,1.06,13,7.47,5.17,9.94,8.4c2.59,3.4,2.63,9.26,5.93,12.19s9.03,2.19,12.79,4.56c3.56,2.24,5.48,7.8,9.53,9.65,3.82,1.75,9.32-.38,13.55,1.03,4,1.34,7.06,6.36,11.39,7.4s9.14-2.09,13.52-1.38,7.96,5.2,12.36,5.64,8.83-3.26,13.24-3.07,8.5,4.27,12.9,4.25,8.49-4.13,12.88-4.34,8.86,3.49,13.23,3.1" fill="none" stroke="#4f46e5" stroke-miterlimit="10" stroke-width="4"/><path d="m1.06,420.97c27.54-17.11,68.7-36.13,114.57-29.12,36.76,5.62,54.89,23.83,77.66,36.4,70.67,39.02,185.23,17.85,260.42-33.98" fill="none" stroke="#4f46e5" stroke-miterlimit="10" stroke-width="4"/></g></svg>