<svg xmlns="http://www.w3.org/2000/svg" version="1.1" xmlns:xlink="http://www.w3.org/1999/xlink" xmlns:svgjs="http://svgjs.dev/svgjs" viewBox="0 0 1422 800"><defs><linearGradient x1="50%" y1="0%" x2="50%" y2="100%" id="oooscillate-grad"><stop stop-color="#A060E3" stop-opacity="1" offset="0%"></stop><stop stop-color="#FFB3CD" stop-opacity="1" offset="100%"></stop></linearGradient></defs><g stroke-width="7.5" stroke="url(#oooscillate-grad)" fill="none" stroke-linecap="round"><path d="M 0 8 Q 355.5 -30 711 400 Q 1066.5 830 1422 8" opacity="0.05"></path><path d="M 0 7 Q 355.5 -30 711 400 Q 1066.5 830 1422 7" opacity="0.19"></path><path d="M 0 6 Q 355.5 -30 711 400 Q 1066.5 830 1422 6" opacity="0.32"></path><path d="M 0 5 Q 355.5 -30 711 400 Q 1066.5 830 1422 5" opacity="0.46"></path><path d="M 0 4 Q 355.5 -30 711 400 Q 1066.5 830 1422 4" opacity="0.59"></path><path d="M 0 3 Q 355.5 -30 711 400 Q 1066.5 830 1422 3" opacity="0.73"></path><path d="M 0 2 Q 355.5 -30 711 400 Q 1066.5 830 1422 2" opacity="0.86"></path></g></svg>